<svg id="Layer_1" data-name="Layer 1" xmlns="http://www.w3.org/2000/svg" viewBox="0 0 169.31 124.77"><title>icons</title><path d="M62.33,420H60.42l-0.33-1.63H52.25L51.92,420H50a1.92,1.92,0,0,0-1.76,1.8H64.1A1.92,1.92,0,0,0,62.33,420Zm5.36-22h-23a1.44,1.44,0,0,0-1.44,1.44V416a1.44,1.44,0,0,0,1.44,1.44h23A1.44,1.44,0,0,0,69.14,416V399.45A1.44,1.44,0,0,0,67.7,398ZM56.17,416.38a0.72,0.72,0,1,1,.72-0.72A0.72,0.72,0,0,1,56.17,416.38Zm11.52-2.52h-23V400.18a0.72,0.72,0,0,1,.72-0.72H67a0.72,0.72,0,0,1,.72.72v13.68Zm-6.58-6.17a0.1,0.1,0,0,1,0-.17l1-.54c0.06,0,.05-0.09,0-0.12l-4-1.55c-0.08,0-.11,0-0.09.08l1.55,4c0,0.08.08,0.08,0.12,0l0.54-1a0.1,0.1,0,0,1,.17,0l1.75,1.75a0.14,0.14,0,0,0,.2,0l0.56-.56a0.14,0.14,0,0,0,0-.2Z" transform="translate(-42.46 -346.54)" style="fill:#191e23;opacity:0.30000000000000004"/><path d="M109.36,395.83H98.06a2,2,0,0,0-2,2.1v22.38a2,2,0,0,0,2,2.1h11.29a2,2,0,0,0,2-2.1h0V397.93A2,2,0,0,0,109.36,395.83Zm-7.58,1.33h3.88a0.34,0.34,0,1,1,0,.66h-3.88A0.34,0.34,0,1,1,101.77,397.16Zm-2.55,23.25a0.83,0.83,0,1,1,.83-0.83A0.83,0.83,0,0,1,99.22,420.41Zm6,0h-3a0.83,0.83,0,1,1,0-1.66h3A0.83,0.83,0,0,1,105.21,420.41Zm3,0a0.83,0.83,0,1,1,.83-0.83A0.83,0.83,0,0,1,108.19,420.41Zm1.83-2.66H97.4V398.49H110v19.27Zm-11-14.62h1.33a0.66,0.66,0,0,0,.66-0.66v-1.33a0.66,0.66,0,0,0-.66-0.66H99.06a0.66,0.66,0,0,0-.66.66v1.33A0.66,0.66,0,0,0,99.06,403.14Zm4,0h1.33a0.67,0.67,0,0,0,.67-0.66v-1.33a0.67,0.67,0,0,0-.67-0.66H103a0.66,0.66,0,0,0-.66.66v1.33A0.66,0.66,0,0,0,103,403.14Zm4,0h1.33a0.66,0.66,0,0,0,.66-0.66v-1.33a0.66,0.66,0,0,0-.66-0.66H107a0.67,0.67,0,0,0-.67.66v1.33A0.67,0.67,0,0,0,107,403.14Zm-8,4h1.33a0.66,0.66,0,0,0,.66-0.66v-1.33a0.66,0.66,0,0,0-.66-0.66H99.06a0.67,0.67,0,0,0-.66.66v1.33A0.66,0.66,0,0,0,99.06,407.13Zm4,0h1.33a0.67,0.67,0,0,0,.67-0.66v-1.33a0.67,0.67,0,0,0-.67-0.66H103a0.66,0.66,0,0,0-.66.66v1.33A0.66,0.66,0,0,0,103,407.13Zm4,0h1.33a0.66,0.66,0,0,0,.66-0.66v-1.33a0.66,0.66,0,0,0-.66-0.66H107a0.67,0.67,0,0,0-.67.66v1.33A0.67,0.67,0,0,0,107,407.13Zm-8,4h1.33a0.67,0.67,0,0,0,.66-0.67v-1.33a0.67,0.67,0,0,0-.66-0.67H99.06a0.67,0.67,0,0,0-.66.67v1.33A0.67,0.67,0,0,0,99.06,411.11Zm4,0h1.33a0.67,0.67,0,0,0,.67-0.67v-1.33a0.67,0.67,0,0,0-.67-0.67H103a0.66,0.66,0,0,0-.66.67v1.33A0.66,0.66,0,0,0,103,411.11Zm-4,4h1.33a0.66,0.66,0,0,0,.66-0.66v-1.33a0.66,0.66,0,0,0-.66-0.66H99.06a0.66,0.66,0,0,0-.66.66v1.33A0.66,0.66,0,0,0,99.06,415.1Zm4,0h1.33a0.67,0.67,0,0,0,.67-0.66v-1.33a0.67,0.67,0,0,0-.67-0.66H103a0.66,0.66,0,0,0-.66.66v1.33A0.66,0.66,0,0,0,103,415.1Zm4-4h1.33a0.67,0.67,0,0,0,.66-0.67v-1.33a0.66,0.66,0,0,0-.66-0.67H107a0.67,0.67,0,0,0-.67.67v1.33A0.67,0.67,0,0,0,107,411.11Z" transform="translate(-42.46 -346.54)" style="fill:#191e23;opacity:0.30000000000000004"/><path d="M161.43,402.53v15.26a1.69,1.69,0,0,0,1.19,1.88h1.52a3.31,3.31,0,0,0,.56-1.88V402.53h-3.27Zm-0.89,15.26V397.67H139.72v20.12c0,1.53.93,2.77,2.08,2.77h20.81C161.47,420.56,160.53,419.32,160.53,417.79ZM155.08,403a3.08,3.08,0,0,0,.58.2,2.46,2.46,0,0,0,.57.07,0.9,0.9,0,0,0,.57-0.15,0.48,0.48,0,0,0,.18-0.39,0.5,0.5,0,0,0-.17-0.38,2.57,2.57,0,0,0-.7-0.37,1.83,1.83,0,0,1-.76-0.5,1.07,1.07,0,0,1-.22-0.68,1,1,0,0,1,.35-0.78,1.46,1.46,0,0,1,.95-0.28,2.76,2.76,0,0,1,1.13.25l-0.21.53a2.48,2.48,0,0,0-.94-0.22,0.73,0.73,0,0,0-.48.14,0.45,0.45,0,0,0-.16.36,0.51,0.51,0,0,0,.06.26,0.67,0.67,0,0,0,.21.21,3.57,3.57,0,0,0,.54.26,2.83,2.83,0,0,1,.64.34,1,1,0,0,1,.3.35,1.07,1.07,0,0,1,.09.47,1,1,0,0,1-.38.83,1.66,1.66,0,0,1-1.05.3,2.51,2.51,0,0,1-1.1-.21V403Zm-4.83-3.2,0.57,2.31a9.66,9.66,0,0,1,.19,1c0-.15.05-0.33,0.09-0.52s0.08-.34.11-0.46l0.65-2.32h0.64l0.66,2.33a8.65,8.65,0,0,1,.2,1,6.71,6.71,0,0,1,.2-1l0.56-2.3h0.66l-1,4H153l-0.67-2.36c0-.1-0.07-0.25-0.11-0.45s-0.07-.33-0.08-0.41c0,0.12,0,.27-0.09.45s-0.08.32-.1,0.41l-0.66,2.35h-0.7l-0.51-2-0.52-2h0.66Zm2,5.84v4.16H148v-4.16h4.16ZM147,399.81h2.24v0.55h-1.59v1.08h1.5V402h-1.5v1.24h1.59v0.55H147v-4Zm-4.35,0h0.79l1.94,3.14h0s0-.19,0-0.45,0-.46,0-0.61v-2.08h0.59v4h-0.79l-1.95-3.16h0v0.18c0,0.34,0,.64,0,0.92v2.06h-0.59v-4Zm-0.84,5.84H146v4.16H141.8v-4.16Zm12.83,12.14H142.15a0.35,0.35,0,1,1,0-.69h12.49A0.35,0.35,0,1,1,154.64,417.79Zm0-1.39H142.15a0.35,0.35,0,1,1,0-.69h12.49A0.35,0.35,0,0,1,154.64,416.4Zm2.77-1.39H142.15a0.35,0.35,0,1,1,0-.69h15.26A0.35,0.35,0,1,1,157.41,415Zm0.7-1.39h-16a0.35,0.35,0,1,1,0-.69h16A0.35,0.35,0,0,1,158.11,413.63Zm0-1.39h-16a0.35,0.35,0,1,1,0-.69h16A0.35,0.35,0,0,1,158.11,412.24Zm0.35-2.43h-4.16v-4.16h4.16v4.16Z" transform="translate(-42.46 -346.54)" style="fill:#191e23;opacity:0.30000000000000004"/><path d="M208.88,397h-20.2a2,2,0,0,0-2,2v20.2a2,2,0,0,0,2,2h20.2a2,2,0,0,0,2-2V399A2,2,0,0,0,208.88,397Zm-9.17,22.89h-2.53a0.75,0.75,0,0,1,0-1.35h2.53A0.75,0.75,0,0,1,199.71,419.89Zm9.85-2.69a0.67,0.67,0,0,1-.67.67h-20.2a0.67,0.67,0,0,1-.67-0.67V399a0.67,0.67,0,0,1,.67-0.67h20.2a0.67,0.67,0,0,1,.67.67V417.2Zm-14.14-12.79h-1.34a0.67,0.67,0,0,0-.67.67v1.35a0.67,0.67,0,0,0,.67.67h1.34a0.67,0.67,0,0,0,.67-0.67v-1.35A0.67,0.67,0,0,0,195.41,404.41Zm0,4h-1.34a0.67,0.67,0,0,0-.67.67v1.35a0.67,0.67,0,0,0,.67.67h1.34a0.67,0.67,0,0,0,.67-0.67v-1.35A0.67,0.67,0,0,0,195.41,408.45Zm0-8.08h-1.34a0.67,0.67,0,0,0-.67.67v1.35a0.67,0.67,0,0,0,.67.67h1.34a0.67,0.67,0,0,0,.67-0.67V401A0.67,0.67,0,0,0,195.41,400.37Zm0,12.12h-1.34a0.67,0.67,0,0,0-.67.67v1.35a0.67,0.67,0,0,0,.67.67h1.34a0.67,0.67,0,0,0,.67-0.67v-1.35A0.67,0.67,0,0,0,195.41,412.48Zm-4-12.12H190a0.67,0.67,0,0,0-.67.67v1.35a0.67,0.67,0,0,0,.67.67h1.35a0.67,0.67,0,0,0,.67-0.67V401A0.67,0.67,0,0,0,191.38,400.37Zm0,12.12H190a0.67,0.67,0,0,0-.67.67v1.35a0.67,0.67,0,0,0,.67.67h1.35a0.67,0.67,0,0,0,.67-0.67v-1.35A0.67,0.67,0,0,0,191.38,412.48Zm0-4H190a0.67,0.67,0,0,0-.67.67v1.35a0.67,0.67,0,0,0,.67.67h1.35a0.67,0.67,0,0,0,.67-0.67v-1.35A0.67,0.67,0,0,0,191.38,408.45Zm8.08,4h-1.35a0.67,0.67,0,0,0-.67.67v1.35a0.67,0.67,0,0,0,.67.67h1.35a0.67,0.67,0,0,0,.67-0.67v-1.35A0.67,0.67,0,0,0,199.46,412.48Zm-8.08-8.08H190a0.67,0.67,0,0,0-.67.67v1.35a0.67,0.67,0,0,0,.67.67h1.35a0.67,0.67,0,0,0,.67-0.67v-1.35A0.67,0.67,0,0,0,191.38,404.41Zm16.16,0h-1.35a0.67,0.67,0,0,0-.67.67v1.35a0.67,0.67,0,0,0,.67.67h1.35a0.67,0.67,0,0,0,.67-0.67v-1.35A0.67,0.67,0,0,0,207.53,404.41Zm-4-4h-1.35a0.67,0.67,0,0,0-.67.67v1.35a0.67,0.67,0,0,0,.67.67h1.35a0.67,0.67,0,0,0,.67-0.67V401A0.67,0.67,0,0,0,203.5,400.37Zm4,8.08h-1.35a0.67,0.67,0,0,0-.67.67v1.35a0.67,0.67,0,0,0,.67.67h1.35a0.67,0.67,0,0,0,.67-0.67v-1.35A0.67,0.67,0,0,0,207.53,408.45Zm0-8.08h-1.35a0.67,0.67,0,0,0-.67.67v1.35a0.67,0.67,0,0,0,.67.67h1.35a0.67,0.67,0,0,0,.67-0.67V401A0.67,0.67,0,0,0,207.53,400.37Zm-4,8.08h-1.35a0.67,0.67,0,0,0-.67.67v1.35a0.67,0.67,0,0,0,.67.67h1.35a0.67,0.67,0,0,0,.67-0.67v-1.35A0.67,0.67,0,0,0,203.5,408.45Zm-4-8.08h-1.35a0.67,0.67,0,0,0-.67.67v1.35a0.67,0.67,0,0,0,.67.67h1.35a0.67,0.67,0,0,0,.67-0.67V401A0.67,0.67,0,0,0,199.46,400.37Zm0,4h-1.35a0.67,0.67,0,0,0-.67.67v1.35a0.67,0.67,0,0,0,.67.67h1.35a0.67,0.67,0,0,0,.67-0.67v-1.35A0.67,0.67,0,0,0,199.46,404.41Zm0,4h-1.35a0.67,0.67,0,0,0-.67.67v1.35a0.67,0.67,0,0,0,.67.67h1.35a0.67,0.67,0,0,0,.67-0.67v-1.35A0.67,0.67,0,0,0,199.46,408.45Zm4-4h-1.35a0.67,0.67,0,0,0-.67.67v1.35a0.67,0.67,0,0,0,.67.67h1.35a0.67,0.67,0,0,0,.67-0.67v-1.35A0.67,0.67,0,0,0,203.5,404.41Z" transform="translate(-42.46 -346.54)" style="fill:#191e23;opacity:0.30000000000000004"/><path d="M53.66,351.79a4.51,4.51,0,0,1,.84-0.32L51,346.72a0.45,0.45,0,0,0-.61-0.1,0.41,0.41,0,0,0-.1.59Zm8.42-4.59a0.41,0.41,0,0,0-.1-0.59,0.45,0.45,0,0,0-.61.1l-3.53,4.76a4.41,4.41,0,0,1,.84.32Zm5.32,6.45H59.17c0-.83-1.34-1.5-3-1.5s-3,.67-3,1.5H44.94a2.25,2.25,0,0,0-2.25,2.25v15a2.25,2.25,0,0,0,2.25,2.25H67.41a2.25,2.25,0,0,0,2.25-2.25v-15A2.25,2.25,0,0,0,67.41,353.65Zm-0.75,2.25a1.5,1.5,0,1,1-1.5,1.5A1.5,1.5,0,0,1,66.66,355.9Zm0,4.5a1.5,1.5,0,1,1-1.5,1.5A1.5,1.5,0,0,1,66.66,360.4Zm-3,8.24a2.25,2.25,0,0,1-2.25,2.25H47.19a2.25,2.25,0,0,1-2.25-2.25V358.15a2.25,2.25,0,0,1,2.25-2.25H61.42a2.25,2.25,0,0,1,2.25,2.25v10.48Zm4.49,1.5h-3a0.37,0.37,0,1,1,0-.75h3A0.37,0.37,0,1,1,68.16,370.13Zm0-1.5h-3a0.37,0.37,0,0,1,0-.75h3A0.37,0.37,0,0,1,68.16,368.63Zm0-1.5h-3a0.37,0.37,0,0,1,0-.75h3A0.37,0.37,0,0,1,68.16,367.13Zm0-1.5h-3a0.37,0.37,0,1,1,0-.75h3A0.37,0.37,0,0,1,68.16,365.64Z" transform="translate(-42.46 -346.54)" style="fill:#191e23;opacity:0.30000000000000004"/><path d="M115.46,355.68H94.89a1.3,1.3,0,0,0,0-.34,1.36,1.36,0,0,0-.35-0.65,1.46,1.46,0,0,0-2.54.85,0.78,0.78,0,0,0,0,.14,2.06,2.06,0,0,0-2.21,1.87V370A2.06,2.06,0,0,0,92,371.84h23.51a2.06,2.06,0,0,0,2.2-1.86V357.55A2.06,2.06,0,0,0,115.46,355.68Zm-18,14a5.88,5.88,0,1,1,5.88-5.88A5.88,5.88,0,0,1,97.46,369.64Zm9.92-2.2a2.2,2.2,0,1,1,2.2-2.2A2.2,2.2,0,0,1,107.38,367.44Zm5.88,0a2.2,2.2,0,1,1,2.2-2.2A2.2,2.2,0,0,1,113.26,367.44Zm2.2-7.35a0.66,0.66,0,0,1-.37.74h-3.31v-2.2h-0.74v2.2h-7a0.66,0.66,0,0,1-.37-0.74v-1.47a0.66,0.66,0,0,1,.37-0.73h11a0.66,0.66,0,0,1,.37.73v1.47Zm-18-1.32a0.26,0.26,0,0,0-.26.26v9.47a0.26,0.26,0,0,0,.53,0V359A0.26,0.26,0,0,0,97.46,358.77Zm-1.05.26a0.26,0.26,0,0,0-.26.26v8.94a0.26,0.26,0,0,0,.53,0v-8.94A0.26,0.26,0,0,0,96.41,359Zm-2.1,1.05a0.26,0.26,0,0,0-.26.26v6.84a0.26,0.26,0,1,0,.53,0v-6.84A0.26,0.26,0,0,0,94.31,360.08Zm1.05-.79a0.26,0.26,0,0,0-.26.26V368a0.26,0.26,0,1,0,.53,0v-8.41A0.26,0.26,0,0,0,95.36,359.29Zm3.15-.26a0.26,0.26,0,0,0-.26.26v8.94a0.26,0.26,0,1,0,.53,0v-8.94A0.26,0.26,0,0,0,98.52,359Zm-5.26,1.84a0.26,0.26,0,0,0-.26.26v5.26a0.26,0.26,0,1,0,.53,0v-5.26A0.26,0.26,0,0,0,93.26,360.87Zm8.15,0.26v5.26a0.26,0.26,0,1,0,.53,0v-5.26A0.26,0.26,0,1,0,101.41,361.14Zm-0.79-1.05a0.26,0.26,0,0,0-.26.26v6.84a0.26,0.26,0,1,0,.53,0v-6.84A0.26,0.26,0,0,0,100.62,360.08Zm-1.05-.79a0.26,0.26,0,0,0-.26.26V368a0.26,0.26,0,1,0,.53,0v-8.41A0.26,0.26,0,0,0,99.57,359.29Zm7.81,4.47a1.47,1.47,0,1,0,1.47,1.47A1.47,1.47,0,0,0,107.38,363.76Zm5.88,0a1.47,1.47,0,1,0,1.47,1.47A1.47,1.47,0,0,0,113.26,363.76Zm-17-9,19.72-6.57a0.38,0.38,0,0,0-.24-0.71L95.32,354.3a2.31,2.31,0,0,1,.29.49h0.62Z" transform="translate(-42.46 -346.54)" style="fill:#191e23;opacity:0.30000000000000004"/><path d="M145.1,368.87a3.18,3.18,0,0,1-3.18-3l-1.37-.34c0,0.07,0,.13,0,0.2a4.55,4.55,0,0,0,8.65,2l-1.36-.34A3.18,3.18,0,0,1,145.1,368.87ZM156,352.93a0.91,0.91,0,0,0-.91.91v0.23l-17.3,4.33a0.91,0.91,0,1,0-1.82,0v5.46a0.91,0.91,0,1,0,1.82,0l17.3,4.33v0.23a0.91,0.91,0,0,0,1.82,0V353.84A0.91,0.91,0,0,0,156,352.93Zm2.73,5.09a0.43,0.43,0,0,0,.18,0l6.53-2.82a0.46,0.46,0,0,0-.36-0.84l-6.53,2.82A0.45,0.45,0,0,0,158.76,358Zm7.29,2.64h-7.12a0.46,0.46,0,0,0,0,.91H166A0.46,0.46,0,0,0,166,360.67Zm-0.57,6.5-6.53-2.82a0.45,0.45,0,1,0-.36.83l6.53,2.82a0.47,0.47,0,0,0,.18,0A0.45,0.45,0,0,0,165.47,367.17Z" transform="translate(-42.46 -346.54)" style="fill:#191e23;opacity:0.30000000000000004"/><path d="M204,360.74l1.43-.71h-8.82a0.36,0.36,0,0,1,0-.71h10a0.34,0.34,0,0,1,.16,0l2-1v-5.12h-20v5.13l4.74,2.37H204ZM196.64,355h10a0.36,0.36,0,1,1,0,.71h-10A0.36,0.36,0,0,1,196.64,355Zm0,1.43h10a0.36,0.36,0,1,1,0,.71h-10A0.36,0.36,0,0,1,196.64,356.46Zm0,1.43h10a0.36,0.36,0,1,1,0,.71h-10A0.36,0.36,0,0,1,196.64,357.89Zm-6.43-3.21h4.28V359h-4.28v-4.28Zm12.39,6.78H195l1.43,0.71h4.8Zm-2.86,1.43h-1.94l1,0.49Zm10.47-6.51-0.55-.36v1.91l1.67-.83ZM198.78,349l-5.2,3.35H204Zm-10.88,7-0.55.36-1.11.72,1.67,0.84V356Zm10.88,8.35-13-6.5v13.49a1,1,0,0,0,1,1h24a1,1,0,0,0,1-1V357.87Z" transform="translate(-42.46 -346.54)" style="fill:#191e23;opacity:0.30000000000000004"/><path d="M54.73,471h2.89v-6.32H54.73V471Zm-1.36-.83V471H59v-0.84h-5.6Zm12.9-22.26V446.8H67l-0.54-1.08H65.37l-0.54,1.08h0.72v1.08H59.78V446.8H60.5L60,445.72H58.88l-0.54,1.08h0.72v1.08H53.29V446.8H54l-0.54-1.08H52.38l-0.54,1.08h0.72v1.08H46.79V446.8h0.72L47,445.72H45.89l-0.54,1.08h0.72v1.08H42.46v15.87H69.88V447.89H66.28Zm2.52,14.79H43.54V449H68.8v13.71Z" transform="translate(-42.46 -346.54)" style="fill:#191e23;opacity:0.30000000000000004"/><path d="M105.95,470v-0.86c-0.85,0-1.64.06-2.24,0.06s-1.39,0-2.24-.06V470c-1.34.26-2.24,0.74-2.24,1.29h9C108.19,470.76,107.29,470.27,105.95,470Zm-2.24-24.83c-4.95,0-9,1-9,2.24,0,0.46.55,0.88,1.49,1.24v18.17c0,0.82,3.34,1.49,7.46,1.49s7.47-.67,7.47-1.49V448.66c0.94-.35,1.49-0.78,1.49-1.24C112.67,446.18,108.66,445.18,103.71,445.18Zm6,3.73v17.17h0c0,0.41-2.67.75-6,.75s-6-.33-6-0.75h0V448.91h0c0-.41,2.68-0.75,6-0.75s6,0.33,6,.75h0Z" transform="translate(-42.46 -346.54)" style="fill:#191e23;opacity:0.30000000000000004"/><path d="M158.12,442.9l-9.8,1.4h9.8v-1.4Zm-10.83,5.37-0.06-.18-0.05-.19a3.5,3.5,0,0,1-.12.39l-0.19.56h0.62Zm-5.22-3.08v25.21h18.34V445.19H142.08Zm15.49,2.42h1.21v0.29h-0.86v0.58h0.8v0.29h-0.8v0.67h0.86v0.3h-1.21v-2.13Zm-2.34,0h0.42l1,1.69h0s0-.1,0-0.24,0-.25,0-0.33v-1.12H157v2.13h-0.43l-1-1.7h0v0.09c0,0.18,0,.35,0,0.5v1.11h-0.32v-2.13Zm-0.91,0h0.35v2.13h-0.35v-2.13Zm-1.9,1.89,1.07-1.59h-1v-0.3h1.47v0.25l-1.08,1.59h1.11v0.3h-1.52v-0.24Zm-1.28-1.9h0.38l0.8,2.14h-0.37l-0.21-.59h-0.82l-0.21.59h-0.37Zm-2.49.27a1.11,1.11,0,0,1,.81-0.29,1.58,1.58,0,0,1,.63.13L150,448a1.2,1.2,0,0,0-.52-0.12,0.69,0.69,0,0,0-.54.21,0.83,0.83,0,0,0-.2.59,0.87,0.87,0,0,0,.18.59,0.64,0.64,0,0,0,.51.2,1.61,1.61,0,0,0,.36,0v-0.55h-0.44v-0.3h0.79v1.07a2.14,2.14,0,0,1-.37.09l-0.38,0a1,1,0,0,1-.75-0.29,1.16,1.16,0,0,1-.26-0.81A1.07,1.07,0,0,1,148.64,447.88Zm-1.65-.27h0.38l0.79,2.14H147.8l-0.21-.59h-0.82l-0.21.59h-0.37Zm-3.28,0h0.49l0.59,1.7h0l0.61-1.7h0.49v2.13h-0.33v-1.06c0-.11,0-0.25,0-0.41s0-.27,0-0.31h0l-0.64,1.78h-0.31L144,448h0c0,0.26,0,.51,0,0.74v1h-0.32v-2.13Zm15.17,20.5h-2.22a6.48,6.48,0,0,0-2.28-4.92,4.5,4.5,0,0,1-6.3,0,6.48,6.48,0,0,0-2.27,4.92H143.6V451.31h15.28v16.81Zm-7.45-19.84-0.06-.18-0.05-.19a3.3,3.3,0,0,1-.11.39l-0.19.56h0.62Zm-0.2,15.32a3.62,3.62,0,0,0,3.62-3.62v-1.81h-0.14a3.59,3.59,0,0,1-1.87-.58,5.67,5.67,0,0,1-5.16-.11,3.59,3.59,0,0,0-.07.71V460A3.62,3.62,0,0,0,151.24,463.59Zm1.68-7.11a2.71,2.71,0,0,0,1.82.77,3.62,3.62,0,0,0-6.76-.67,4.55,4.55,0,0,0,2.39.65A4.5,4.5,0,0,0,152.93,456.48Z" transform="translate(-42.46 -346.54)" style="fill:#191e23;opacity:0.30000000000000004"/><path d="M200,469.71h4.16v-5.32H200v5.32ZM184.69,452.3v0.31l6.71,4v-5h-6.19A0.58,0.58,0,0,0,184.69,452.3Zm0,8.74a0.58,0.58,0,0,0,.52.62h6.19v-3.93l-6.71-4V461Zm24.92-11.44H192.32v13.88h17.29a1.42,1.42,0,0,0,1.44-1.39V451A1.42,1.42,0,0,0,209.61,449.59Zm-13.82-2.43L200,445c0.34-.17.31-0.31-0.07-0.31H194.4a0.7,0.7,0,0,0-.69.69v3.24h2.08v-1.51Z" transform="translate(-42.46 -346.54)" style="fill:#191e23;opacity:0.30000000000000004"/></svg>